<svg width="48" height="48" viewBox="0 0 48 48" fill="none" xmlns="http://www.w3.org/2000/svg">
<g clip-path="url(#clip0_204_936)">
<path d="M46.2923 18.942L44.7183 16.8C43.6276 15.3159 42.2038 14.1084 40.5615 13.2747C38.9192 12.441 37.1041 12.0044 35.2623 12H12.7643C10.9603 12.0047 9.18154 12.4235 7.56499 13.2242C5.94844 14.0248 4.53729 15.1859 3.44028 16.618L1.79828 18.766C0.465249 20.5246 -0.161498 22.7184 0.0413266 24.9158C0.244151 27.1131 1.26187 29.1551 2.89428 30.64L18.8743 46.054C20.2778 47.3057 22.0937 47.9957 23.9743 47.992C25.8947 47.9882 27.7463 47.2761 29.1743 45.992L45.0463 30.726C46.6881 29.2722 47.7264 27.2567 47.957 25.0759C48.1876 22.8951 47.5937 20.707 46.2923 18.942ZM41.4923 19.156L43.0663 21.304C43.2244 21.5238 43.3636 21.7566 43.4823 22H33.9003C33.7555 21.0422 33.506 20.1033 33.1563 19.2L31.8763 16H35.2623C36.4752 16.0023 37.6706 16.289 38.7526 16.8371C39.8346 17.3852 40.7729 18.1795 41.4923 19.156ZM23.9783 40.176L18.4403 27.636C18.24 27.1056 18.0887 26.558 17.9883 26H29.8923C29.8084 26.4397 29.6907 26.8724 29.5403 27.294L23.9783 40.176ZM18.1983 22C18.2819 21.6414 18.3868 21.2881 18.5123 20.942L20.4803 16H27.5683L29.4423 20.686C29.6068 21.1139 29.7405 21.553 29.8423 22H18.1983ZM6.62029 19.042C7.34341 18.0987 8.27336 17.3339 9.33853 16.8065C10.4037 16.2791 11.5757 16.0032 12.7643 16H16.1643L14.7983 19.458C14.4687 20.2785 14.2228 21.1301 14.0643 22H4.48829C4.62546 21.7173 4.79098 21.4493 4.98229 21.2L6.62029 19.042ZM5.62029 27.708C5.09854 27.2347 4.68863 26.6513 4.42029 26H13.9643C14.0969 27.0775 14.3567 28.1356 14.7383 29.152L20.3923 41.952L5.62029 27.708ZM27.5403 42.028L33.2483 28.8C33.5796 27.8947 33.8103 26.9557 33.9363 26H43.5983C43.3152 26.6866 42.8827 27.3015 42.3323 27.8L27.5403 42.028Z" fill="#c59844"/>
<path d="M24 8C24.5304 8 25.0392 7.78929 25.4142 7.41421C25.7893 7.03914 26 6.53043 26 6V2C26 1.46957 25.7893 0.960859 25.4142 0.585786C25.0392 0.210714 24.5304 0 24 0C23.4696 0 22.9609 0.210714 22.5858 0.585786C22.2107 0.960859 22 1.46957 22 2V6C22 6.53043 22.2107 7.03914 22.5858 7.41421C22.9609 7.78929 23.4696 8 24 8Z" fill="#c59844"/>
<path d="M33.1071 7.79986C33.3432 7.91858 33.6005 7.98933 33.8642 8.00801C34.1278 8.02668 34.3925 7.99293 34.643 7.90868C34.8935 7.82443 35.1249 7.69137 35.3236 7.51718C35.5224 7.343 35.6847 7.13114 35.8011 6.89386L37.8011 2.89386C38.0382 2.41912 38.077 1.86964 37.909 1.36629C37.7409 0.862944 37.3798 0.446963 36.9051 0.209859C36.4304 -0.0272445 35.8809 -0.0660482 35.3775 0.101984C34.8742 0.270017 34.4582 0.631121 34.2211 1.10586L32.2211 5.10586C32.1016 5.34078 32.0298 5.597 32.0097 5.85977C31.9896 6.12255 32.0217 6.3867 32.104 6.63705C32.1864 6.8874 32.3174 7.119 32.4895 7.31856C32.6616 7.51811 32.8715 7.68168 33.1071 7.79986Z" fill="#c59844"/>
<path d="M12.2086 6.89386C12.4458 7.36992 12.8623 7.7323 13.3665 7.90127C13.8708 8.07024 14.4216 8.03196 14.8976 7.79486C15.3737 7.55776 15.7361 7.14125 15.9051 6.63696C16.074 6.13268 16.0358 5.58192 15.7986 5.10586L13.7986 1.10586C13.6812 0.870793 13.5187 0.661152 13.3203 0.488907C13.1219 0.316662 12.8914 0.185186 12.6422 0.101984C12.1389 -0.0660482 11.5894 -0.0272445 11.1146 0.209859C10.6399 0.446963 10.2788 0.862944 10.1108 1.36629C9.94274 1.86964 9.98154 2.41912 10.2186 2.89386L12.2086 6.89386Z" fill="#c59844"/>
</g>
<defs>
<clipPath id="clip0_204_936">
<rect width="48" height="48" fill="white"/>
</clipPath>
</defs>
</svg>
