<svg width="48" height="48" viewBox="0 0 48 48" fill="none" xmlns="http://www.w3.org/2000/svg">
<g clip-path="url(#clip0_204_934)">
<path d="M8 48L10.666 42.666L16 40L10.666 37.334L8 32L5.334 37.334L0 40L5.334 42.666L8 48Z" fill="#c59844"/>
<path d="M42.666 42.666L48 40L42.666 37.334L40 32L37.334 37.334L32 40L37.334 42.666L40 48L42.666 42.666Z" fill="#c59844"/>
<path d="M26.666 5.334L24 0L21.334 5.334L16 8L21.334 10.666L24 16L26.666 10.666L32 8L26.666 5.334Z" fill="#c59844"/>
<path d="M10 28C11.1046 28 12 27.1046 12 26C12 24.8954 11.1046 24 10 24C8.89543 24 8 24.8954 8 26C8 27.1046 8.89543 28 10 28Z" fill="#c59844"/>
<path d="M2 20C3.10457 20 4 19.1046 4 18C4 16.8954 3.10457 16 2 16C0.89543 16 0 16.8954 0 18C0 19.1046 0.89543 20 2 20Z" fill="#c59844"/>
<path d="M10 12C11.1046 12 12 11.1046 12 10C12 8.89543 11.1046 8 10 8C8.89543 8 8 8.89543 8 10C8 11.1046 8.89543 12 10 12Z" fill="#c59844"/>
<path d="M2 4C3.10457 4 4 3.10457 4 2C4 0.89543 3.10457 0 2 0C0.89543 0 0 0.89543 0 2C0 3.10457 0.89543 4 2 4Z" fill="#c59844"/>
<path d="M46 28C47.1045 28 48 27.1046 48 26C48 24.8954 47.1045 24 46 24C44.8954 24 44 24.8954 44 26C44 27.1046 44.8954 28 46 28Z" fill="#c59844"/>
<path d="M38 20C39.1046 20 40 19.1046 40 18C40 16.8954 39.1046 16 38 16C36.8954 16 36 16.8954 36 18C36 19.1046 36.8954 20 38 20Z" fill="#c59844"/>
<path d="M46 12C47.1045 12 48 11.1046 48 10C48 8.89543 47.1045 8 46 8C44.8954 8 44 8.89543 44 10C44 11.1046 44.8954 12 46 12Z" fill="#c59844"/>
<path d="M38 4C39.1046 4 40 3.10457 40 2C40 0.89543 39.1046 0 38 0C36.8954 0 36 0.89543 36 2C36 3.10457 36.8954 4 38 4Z" fill="#c59844"/>
<path d="M28 48C29.1046 48 30 47.1045 30 46C30 44.8954 29.1046 44 28 44C26.8954 44 26 44.8954 26 46C26 47.1045 26.8954 48 28 48Z" fill="#c59844"/>
<path d="M20 40C21.1046 40 22 39.1046 22 38C22 36.8954 21.1046 36 20 36C18.8954 36 18 36.8954 18 38C18 39.1046 18.8954 40 20 40Z" fill="#c59844"/>
<path d="M28 32C29.1046 32 30 31.1046 30 30C30 28.8954 29.1046 28 28 28C26.8954 28 26 28.8954 26 30C26 31.1046 26.8954 32 28 32Z" fill="#c59844"/>
<path d="M20 24C21.1046 24 22 23.1046 22 22C22 20.8954 21.1046 20 20 20C18.8954 20 18 20.8954 18 22C18 23.1046 18.8954 24 20 24Z" fill="#c59844"/>
</g>
<defs>
<clipPath id="clip0_204_934">
<rect width="48" height="48" fill="white"/>
</clipPath>
</defs>
</svg>
