<svg width="48" height="48" viewBox="0 0 48 48" fill="none" xmlns="http://www.w3.org/2000/svg">
<g clip-path="url(#clip0_204_933)">
<path d="M42 48H6V42C6.11959 38.5413 6.97359 35.1475 8.50529 32.0441C10.037 28.9407 12.2113 26.1987 14.884 24C12.2113 21.8013 10.037 19.0593 8.50529 15.9559C6.97359 12.8525 6.11959 9.45874 6 6C6 4.4087 6.63214 2.88258 7.75736 1.75736C8.88258 0.632141 10.4087 0 12 0L36 0C37.5913 0 39.1174 0.632141 40.2426 1.75736C41.3679 2.88258 42 4.4087 42 6C41.8819 9.45558 41.032 12.8468 39.5065 15.9496C37.9809 19.0525 35.8144 21.7964 33.15 24C35.8144 26.2036 37.9809 28.9475 39.5065 32.0504C41.032 35.1532 41.8819 38.5444 42 42V48ZM10 44H38V42C38 34.452 33 28.896 28.816 25.566L26.848 24L28.816 22.434C33 19.104 38 13.548 38 6C38 5.46957 37.7893 4.96086 37.4142 4.58579C37.0391 4.21071 36.5304 4 36 4H12C11.4696 4 10.9609 4.21071 10.5858 4.58579C10.2107 4.96086 10 5.46957 10 6C10 13.548 15.016 19.102 19.224 22.432L21.2 24L19.218 25.568C15.016 28.898 10 34.452 10 42V44ZM24.036 31.964C25.5131 33.1216 26.8211 34.4801 27.922 36H20.136L24.036 31.964ZM24.028 27.026C20.754 29.172 15.17 33.686 14.16 40H33.844C32.844 33.632 27.268 29.14 24.028 27.026V27.026Z" fill="#c59844"/>
</g>
<defs>
<clipPath id="clip0_204_933">
<rect width="48" height="48" fill="white"/>
</clipPath>
</defs>
</svg>
