<svg width="48" height="48" viewBox="0 0 48 48" fill="none" xmlns="http://www.w3.org/2000/svg">
<g clip-path="url(#clip0_204_935)">
<path d="M28.1608 11.172L1.7988 37.538C0.715634 38.6994 0.12568 40.236 0.15327 41.8239C0.180859 43.4118 0.823838 44.927 1.94669 46.0501C3.06955 47.1733 4.58458 47.8166 6.17247 47.8445C7.76037 47.8725 9.2971 47.2829 10.4588 46.2L36.8268 19.838L28.1608 11.172ZM31.1708 19.838L25.9988 25.01L22.9988 22L28.1708 16.828L31.1708 19.838ZM7.6308 43.376C7.22649 43.7614 6.68936 43.9764 6.1308 43.9764C5.57224 43.9764 5.0351 43.7614 4.6308 43.376C4.23363 42.9778 4.01058 42.4384 4.01058 41.876C4.01058 41.3136 4.23363 40.7742 4.6308 40.376L20.1688 24.836L23.1788 27.846L7.6308 43.376ZM42.6648 29.256L47.9988 31.924L42.6648 34.6L39.9988 39.924L37.3328 34.6L31.9988 31.924L37.3328 29.256L39.9988 23.924L42.6648 29.256ZM13.3328 10.666L7.9988 8L13.3328 5.334L15.9988 0L18.6648 5.334L23.9988 8L18.6648 10.666L15.9988 16L13.3328 10.666ZM38.6648 9.334L33.9988 7L38.6648 4.666L40.9988 0L43.3328 4.666L47.9988 7L43.3328 9.334L40.9988 14L38.6648 9.334Z" fill="#c59844"/>
</g>
<defs>
<clipPath id="clip0_204_935">
<rect width="48" height="48" fill="white"/>
</clipPath>
</defs>
</svg>
