<svg width="188" height="102" viewBox="0 0 188 102" fill="none" xmlns="http://www.w3.org/2000/svg">
<path d="M49.1902 94.9348C47.6459 94.405 43.089 93.2695 38.8122 96.252C35.1863 98.7802 33.4378 99.7643 32.6959 100.128C32.5143 100.218 32.5218 100.476 32.6959 100.559C34.8608 101.543 44.0504 105.002 49.4551 95.6464C49.6065 95.3814 49.4778 95.0332 49.1826 94.9348H49.1902Z" fill="#c59844"/>
<path d="M39.0072 92.5277C39.1889 92.3006 39.0602 91.9751 38.7801 91.9145C37.3722 91.6345 33.9734 90.4006 32.0886 89.6739C29.5982 88.705 25.17 90.5747 21.0142 93.0651C21.0142 93.0651 20.7342 93.2544 20.333 93.3528C19.9999 93.436 19.8939 93.8448 20.1513 94.0643C21.8696 95.5025 26.1767 98.4471 31.1878 97.0089C36.0929 95.6009 38.2427 93.489 38.9997 92.5277H39.0072Z" fill="#c59844"/>
<path d="M28.3595 86.3886L22.3871 83.4289C21.668 83.0731 20.858 82.952 20.0708 83.0882C18.0043 83.444 13.8334 84.2388 11.4868 85.2834C11.3051 85.3667 11.2446 85.6013 11.3733 85.7603C12.1984 86.7973 15.0597 90.0674 18.2616 89.9463C21.5544 89.8252 26.9591 87.3802 28.3671 86.7216C28.5109 86.6535 28.5033 86.4567 28.3671 86.3886H28.3595Z" fill="#c59844"/>
<path d="M21.4144 80.8174C21.5657 80.7872 21.6187 80.5979 21.4976 80.4919L16.4714 76.1091C15.8658 75.5793 15.1164 75.2613 14.314 75.1932C12.2248 75.004 7.98583 74.7163 5.45001 75.1326C5.2532 75.1629 5.13965 75.3824 5.22292 75.5641C5.75279 76.7753 7.69062 80.666 10.8169 81.37C14.0264 82.0891 19.8853 81.1051 21.4144 80.825V80.8174Z" fill="#c59844"/>
<path d="M15.6644 72.5816C15.8082 72.5816 15.8839 72.4075 15.7855 72.2939L11.713 67.5856C11.221 67.0179 10.57 66.6243 9.84334 66.4577C7.93579 66.0111 4.06014 65.1936 1.66057 65.2466C1.47133 65.2466 1.34264 65.4358 1.38806 65.6175C1.72113 66.8059 3.00039 70.6513 5.80115 71.7111C8.67761 72.7935 14.211 72.6497 15.6644 72.5891V72.5816Z" fill="#c59844"/>
<path d="M2.68091 62.4306C4.95936 63.9293 9.78879 64.868 11.0529 65.1026C11.1816 65.1253 11.2724 64.9891 11.2119 64.8755L8.59278 60.0083C8.27486 59.4254 7.7904 58.9561 7.1924 58.6685C5.62549 57.9115 2.42354 56.4506 0.334321 56.0342C0.167789 56.0039 0.0239663 56.1326 0.0315359 56.2992C0.0920929 57.3968 0.455435 60.9772 2.67334 62.4306H2.68091Z" fill="#c59844"/>
<path d="M14.3295 64.6108C14.3597 64.7546 14.5338 64.8 14.6323 64.694C15.5709 63.5964 19.0983 59.3499 20.0218 56.428C20.915 53.5818 18.6896 50.2133 17.9629 49.2141C17.8493 49.0628 17.6298 49.0552 17.5087 49.199C15.9872 51.046 14.2462 54.5886 13.4211 56.3599C13.1032 57.0336 13.0124 57.7905 13.1562 58.5248L14.337 64.6108H14.3295Z" fill="#c59844"/>
<path d="M10.7148 51.5229C10.7148 51.6667 10.8662 51.7575 10.9874 51.6743C12.1606 50.834 16.604 47.5488 18.1936 44.9297C19.7454 42.3788 18.3829 38.5712 17.9211 37.4358C17.853 37.2617 17.6335 37.2011 17.4821 37.3147C15.567 38.7453 13.0236 41.7732 11.8049 43.2947C11.3356 43.8775 11.063 44.5891 11.0252 45.3309L10.7148 51.5229Z" fill="#c59844"/>
<path d="M11.7705 38.0791C13.0043 37.7006 17.6975 36.1867 19.7867 34.423C21.823 32.7046 21.7548 29.1015 21.6867 28.0039C21.6791 27.8374 21.5126 27.7238 21.3536 27.7768C19.325 28.4429 16.3123 30.2824 14.8438 31.2134C14.2836 31.5692 13.8521 32.0991 13.6099 32.7198L11.5888 37.8747C11.5434 37.9958 11.6494 38.1169 11.7781 38.0791H11.7705Z" fill="#c59844"/>
<path d="M26.6861 21.5016C26.7239 21.3653 26.6255 21.2291 26.4817 21.2291C24.6877 21.1988 21.7961 21.8346 20.3654 22.1753C19.8204 22.304 19.336 22.6067 18.9726 23.0306L15.9523 26.5657C15.8842 26.6489 15.9372 26.7776 16.0432 26.7776C17.1256 26.8155 21.2662 26.9063 23.416 26.0812C25.5052 25.2788 26.4438 22.3948 26.6861 21.5091V21.5016Z" fill="#c59844"/>
<path d="M29.0237 20.3286C31.234 19.9729 32.748 17.3538 33.1719 16.5287C33.24 16.4 33.1719 16.2486 33.028 16.2183C31.2795 15.8171 28.3122 15.8399 26.8512 15.8777C26.2911 15.8928 25.7536 16.0821 25.307 16.4227L21.613 19.2538C21.5298 19.3219 21.5525 19.4581 21.6585 19.4808C22.7106 19.7458 26.7452 20.6844 29.0161 20.3211L29.0237 20.3286Z" fill="#c59844"/>
<path d="M7.90533 57.0713C8.01888 57.1394 8.14756 57.041 8.13242 56.9123L7.32247 51.447C7.22406 50.7885 6.92128 50.1829 6.45953 49.706C5.24082 48.4646 2.72771 45.9969 0.903426 44.8993C0.759603 44.816 0.577932 44.8842 0.524944 45.0507C0.20702 46.1029 -0.663487 49.5925 0.926135 51.7195C2.56117 53.8996 6.78503 56.4278 7.89776 57.0713H7.90533Z" fill="#c59844"/>
<path d="M6.89139 48.0107C6.98222 48.1015 7.13361 48.0409 7.14875 47.9123L7.70891 42.4167C7.77703 41.7581 7.63321 41.092 7.30015 40.5167C6.42207 39.0104 4.59779 36.0052 3.099 34.4913C2.97789 34.3702 2.78108 34.4005 2.69781 34.5443C2.13009 35.4829 0.426925 38.6546 1.44883 41.1072C2.501 43.6278 5.96789 47.1099 6.89139 48.0107Z" fill="#c59844"/>
<path d="M8.78369 37.6022C8.85939 37.7082 9.01835 37.6855 9.0562 37.5568L10.6988 32.2808C10.8956 31.6449 10.888 30.9712 10.6761 30.3354C10.1159 28.6852 8.91995 25.3773 7.75422 23.5984C7.66339 23.4546 7.46658 23.447 7.35303 23.5681C6.61121 24.3781 4.31761 27.1486 4.83235 29.7525C5.36222 32.4322 8.07215 36.5349 8.79883 37.5946L8.78369 37.6022Z" fill="#c59844"/>
<path d="M13.2114 28.5644L15.8305 23.6971C16.1484 23.1143 16.262 22.4406 16.1787 21.782C15.944 20.0561 15.399 16.5817 14.5966 14.606C14.5361 14.447 14.3393 14.4016 14.203 14.5C13.3249 15.151 10.5393 17.4295 10.5469 20.0864C10.5545 22.8115 12.4317 27.3608 12.9389 28.5417C12.9919 28.6628 13.1508 28.6628 13.2114 28.5493V28.5644Z" fill="#c59844"/>
<path d="M17.42 20.6917L21.0155 17.4595C21.447 17.0734 21.7422 16.5587 21.8709 15.991C22.1888 14.4998 22.7717 11.4795 22.696 9.61736C22.696 9.47354 22.5446 9.36756 22.4084 9.41298C21.4924 9.69306 18.5176 10.7377 17.7379 12.9329C16.9355 15.181 17.1323 19.4806 17.2005 20.6085C17.2005 20.722 17.3443 20.775 17.4275 20.6993L17.42 20.6917Z" fill="#c59844"/>
<path d="M24.3758 14.2045L28.1757 11.2145C28.6299 10.8512 28.963 10.3591 29.1219 9.79897C29.5383 8.33803 30.3179 5.3556 30.3633 3.49347C30.3633 3.34965 30.2271 3.23611 30.0833 3.27395C29.1446 3.49347 26.1168 4.34884 25.1933 6.48348C24.2471 8.67867 24.1638 12.9782 24.1562 14.1061C24.1562 14.2196 24.2849 14.2802 24.3758 14.2121V14.2045Z" fill="#c59844"/>
<path d="M36.2303 15.0752C38.2665 14.6891 39.6063 12.2063 39.9773 11.4342C40.0302 11.3131 39.9697 11.1768 39.841 11.1465C38.206 10.821 35.4582 10.927 34.1032 11.0027C33.5809 11.033 33.0889 11.2222 32.6877 11.5553L29.3419 14.2879C29.2662 14.3485 29.2889 14.4772 29.3874 14.4999C30.3714 14.7118 34.1411 15.4764 36.2379 15.0752H36.2303Z" fill="#c59844"/>
<path d="M42.3618 80.9914C41.7789 82.8838 40.4694 89.4239 49.4242 91.0817C49.6892 91.1271 49.9238 90.9152 49.9087 90.6502C49.8254 89.1969 49.023 84.9276 42.9901 80.7794C42.763 80.6205 42.445 80.734 42.3618 80.999V80.9914Z" fill="#c59844"/>
<path d="M40.5516 88.2812C40.8468 88.4099 41.1571 88.1374 41.0587 87.827C40.5894 86.3131 39.734 83.0657 39.3177 81.196C38.9468 79.5156 36.5397 76.7602 35.4496 75.6626C35.2377 75.4431 34.8668 75.5567 34.8138 75.8595C34.4126 78.1076 33.7162 85.3442 40.544 88.2812H40.5516Z" fill="#c59844"/>
<path d="M32.9589 84.6475C33.1481 84.7308 33.3525 84.5642 33.3147 84.3598C33.0346 82.8459 32.3685 78.289 32.2625 76.4193C32.1565 74.4512 29.1514 68.3274 27.1757 67.3887C25.2303 66.4652 22.6793 80.1738 32.9589 84.6399V84.6475Z" fill="#c59844"/>
<path d="M24.3185 64.9134C24.0687 63.5585 23.448 61.2119 21.9794 59.0394C21.7902 58.7518 21.3739 58.7442 21.1771 59.0243C20.0946 60.5912 17.2333 65.2238 17.8843 69.4779C17.9221 69.7201 17.9903 69.9624 18.0811 70.1895C18.4747 71.2114 19.807 74.0348 23.4025 77.2973C23.6069 77.479 23.9248 77.3125 23.8719 77.0475C23.5918 75.526 23.2057 71.991 24.2958 66.874C24.432 66.2305 24.4396 65.5644 24.3185 64.921V64.9134Z" fill="#c59844"/>
<path d="M53.2335 95.2678C52.9761 95.0937 52.7112 94.9347 52.4462 94.7833C51.9164 94.4805 51.3865 94.2004 50.8415 93.9431C49.759 93.4208 48.669 92.9363 47.5638 92.5049C45.3535 91.6343 43.1205 90.8244 40.8647 90.1053C40.3046 89.9236 39.7293 89.7571 39.1767 89.5527L37.5341 88.9396C36.9815 88.7503 36.4668 88.4551 35.9293 88.2204C35.3994 87.9631 34.862 87.736 34.3548 87.4332L32.8182 86.5703C32.3035 86.2902 31.8266 85.942 31.327 85.6241C30.8425 85.291 30.3278 85.0033 29.866 84.64L28.4505 83.5878C24.696 80.7492 21.3426 77.3807 18.4359 73.6716L17.3534 72.2788L16.3467 70.8254C15.6503 69.8717 15.075 68.8498 14.4618 67.843C14.1439 67.351 13.8866 66.8211 13.614 66.2988L12.8041 64.7319L12.1077 63.112C11.873 62.5745 11.6308 62.0371 11.4643 61.4694C9.89736 57.0411 9.39777 52.2723 9.47346 47.5715C9.57944 42.8632 10.344 38.1549 11.9185 33.7116C13.4929 29.2682 15.8244 25.0973 18.7992 21.4336C21.759 17.7624 25.3394 14.6134 29.2529 11.9792C30.5095 11.1692 33.5222 9.53417 38.0034 9.00429C43.1962 8.39115 43.6806 2.25975 43.7185 0.549018C43.7185 0.299221 43.5368 0.0797015 43.287 0.0569926C41.6595 -0.10197 35.8688 -0.283641 33.6736 4.841C32.6819 7.1573 31.3951 9.32979 29.7222 11.2071C29.5103 11.4417 29.2983 11.6839 29.0712 11.9262C25.1729 14.5301 21.6 17.6564 18.6327 21.2974C15.6276 24.9611 13.2583 29.1471 11.6535 33.6132C10.0488 38.0792 9.25394 42.8178 9.12526 47.5564C9.05713 48.7448 9.13283 49.9257 9.16311 51.1141C9.16311 51.7046 9.25394 52.295 9.29179 52.8854C9.35235 53.4759 9.37506 54.0663 9.47346 54.6567C9.65513 55.83 9.78382 57.0109 10.0942 58.1615C10.238 58.7367 10.3364 59.3272 10.5256 59.8949L11.0934 61.5905C11.2599 62.1658 11.5021 62.7032 11.7443 63.2482L12.4483 64.8909L13.2658 66.4729C13.5384 67.0028 13.8033 67.5327 14.1212 68.0322C14.7419 69.0466 15.3248 70.0836 16.0212 71.0374L17.0355 72.5059L18.1255 73.9138C21.0626 77.6381 24.4008 81.0596 28.178 83.9436L29.6011 85.0109C30.0704 85.3743 30.5851 85.677 31.0772 86.0101C31.5768 86.328 32.0537 86.6838 32.576 86.9715L34.1277 87.8571C34.6349 88.1674 35.1875 88.4021 35.7174 88.667C36.2624 88.9093 36.7771 89.2121 37.3448 89.4089C38.4576 89.8328 39.5779 90.2567 40.6906 90.6276C42.9161 91.4073 45.134 92.2172 47.2762 93.1861C48.3511 93.663 49.4108 94.1702 50.4251 94.7379C50.9323 95.018 51.4319 95.3207 51.9088 95.6387C52.1435 95.7976 52.3857 95.9566 52.6052 96.1307C52.8171 96.2897 53.0669 96.5016 53.1805 96.6303L53.2183 96.6757C53.2183 96.6757 53.2335 96.6909 53.241 96.6984C53.4681 96.9104 53.8239 96.9028 54.0359 96.6833C54.2478 96.4562 54.2402 96.1004 54.0207 95.8885C53.7179 95.6008 53.4908 95.4494 53.2259 95.2678H53.2335Z" fill="#c59844"/>
<path d="M154.706 100.128C153.964 99.7643 152.215 98.7802 148.589 96.252C144.312 93.2695 139.756 94.405 138.211 94.9348C137.916 95.0332 137.787 95.3814 137.939 95.6464C143.336 105.002 152.533 101.543 154.698 100.559C154.88 100.476 154.887 100.218 154.698 100.128H154.706Z" fill="#c59844"/>
<path d="M167.055 93.3601C166.654 93.2617 166.374 93.0724 166.374 93.0724C162.226 90.582 157.798 88.7123 155.3 89.6812C153.423 90.4155 150.024 91.6418 148.608 91.9219C148.328 91.9748 148.199 92.3079 148.381 92.535C149.146 93.4888 151.295 95.6083 156.193 97.0162C161.197 98.4544 165.504 95.5099 167.23 94.0716C167.494 93.8521 167.381 93.4433 167.048 93.3601H167.055Z" fill="#c59844"/>
<path d="M175.923 85.2907C173.576 84.2461 169.406 83.4437 167.339 83.0955C166.552 82.9593 165.742 83.0804 165.023 83.4362L159.05 86.3959C158.914 86.464 158.907 86.6608 159.05 86.729C160.458 87.3875 165.863 89.8325 169.156 89.9536C172.358 90.0672 175.219 86.8047 176.044 85.7676C176.173 85.6087 176.12 85.374 175.931 85.2907H175.923Z" fill="#c59844"/>
<path d="M181.946 75.1326C179.411 74.7163 175.172 75.0115 173.082 75.1932C172.28 75.2613 171.531 75.5868 170.925 76.1091L165.899 80.4919C165.778 80.5979 165.831 80.7871 165.982 80.8174C167.511 81.0975 173.362 82.0891 176.572 81.3624C179.698 80.6584 181.636 76.7752 182.166 75.5565C182.249 75.3748 182.136 75.1553 181.939 75.125L181.946 75.1326Z" fill="#c59844"/>
<path d="M185.74 65.2468C183.34 65.1938 179.465 66.0189 177.557 66.458C176.83 66.6245 176.172 67.0257 175.687 67.5858L171.615 72.2941C171.516 72.4077 171.592 72.5742 171.736 72.5818C173.189 72.6424 178.723 72.7937 181.599 71.7037C184.4 70.644 185.679 66.7986 186.012 65.6102C186.065 65.4285 185.929 65.2468 185.74 65.2393V65.2468Z" fill="#c59844"/>
<path d="M187.065 56.0269C184.976 56.4432 181.774 57.9117 180.207 58.6611C179.609 58.9488 179.117 59.4181 178.806 60.0009L176.187 64.8682C176.127 64.9817 176.217 65.118 176.346 65.0953C177.61 64.8682 182.44 63.922 184.718 62.4232C186.936 60.9623 187.307 57.3818 187.36 56.2918C187.368 56.1253 187.224 55.989 187.057 56.0269H187.065Z" fill="#c59844"/>
<path d="M173.065 64.6108L174.246 58.5248C174.39 57.7905 174.291 57.0336 173.981 56.3599C173.156 54.5886 171.407 51.046 169.893 49.199C169.772 49.0552 169.553 49.0628 169.439 49.2141C168.712 50.2133 166.487 53.5818 167.38 56.428C168.296 59.3499 171.831 63.5964 172.77 64.694C172.86 64.8076 173.042 64.7546 173.072 64.6108H173.065Z" fill="#c59844"/>
<path d="M176.687 51.5229L176.377 45.3309C176.339 44.5891 176.066 43.8775 175.597 43.2947C174.371 41.7732 171.835 38.7453 169.92 37.3147C169.768 37.2011 169.556 37.2617 169.481 37.4358C169.011 38.5788 167.656 42.3788 169.208 44.9297C170.798 47.5488 175.241 50.834 176.415 51.6743C176.536 51.7575 176.695 51.6743 176.687 51.5229Z" fill="#c59844"/>
<path d="M173.789 32.7198C173.547 32.0991 173.115 31.5768 172.555 31.2134C171.086 30.2748 168.074 28.4354 166.045 27.7768C165.886 27.7238 165.72 27.8374 165.712 28.0039C165.644 29.1015 165.576 32.7046 167.612 34.423C169.701 36.1867 174.394 37.7006 175.628 38.0791C175.749 38.1169 175.863 37.9958 175.817 37.8747L173.796 32.7198H173.789Z" fill="#c59844"/>
<path d="M168.429 23.0306C168.065 22.6067 167.581 22.304 167.036 22.1753C165.613 21.8346 162.714 21.1988 160.92 21.2291C160.776 21.2291 160.677 21.3653 160.715 21.5016C160.957 22.3948 161.904 25.2713 163.985 26.0736C166.127 26.8987 170.268 26.8079 171.358 26.77C171.464 26.77 171.517 26.6414 171.449 26.5581L168.429 23.0231V23.0306Z" fill="#c59844"/>
<path d="M162.082 16.4227C161.636 16.0821 161.098 15.8928 160.538 15.8777C159.077 15.8399 156.11 15.8171 154.361 16.2183C154.225 16.2486 154.157 16.4 154.218 16.5287C154.641 17.3462 156.155 19.9729 158.366 20.3286C160.637 20.692 164.671 19.7458 165.723 19.4884C165.829 19.4657 165.852 19.3294 165.769 19.2613L162.075 16.4303L162.082 16.4227Z" fill="#c59844"/>
<path d="M180.94 49.7062C180.478 50.1831 180.175 50.7886 180.077 51.4472L179.267 56.9124C179.252 57.0411 179.38 57.132 179.494 57.0714C180.607 56.428 184.831 53.8997 186.466 51.7197C188.055 49.5926 187.185 46.103 186.867 45.0508C186.821 44.8919 186.632 44.8162 186.488 44.8995C184.664 46.0046 182.151 48.4647 180.932 49.7062H180.94Z" fill="#c59844"/>
<path d="M179.688 42.4167L180.249 47.9123C180.264 48.0409 180.415 48.1015 180.506 48.0107C181.429 47.1099 184.896 43.6278 185.948 41.1072C186.97 38.6546 185.267 35.4829 184.699 34.5443C184.616 34.4005 184.412 34.3702 184.298 34.4913C182.8 36.0052 180.975 39.0104 180.097 40.5167C179.764 41.092 179.62 41.7506 179.688 42.4167Z" fill="#c59844"/>
<path d="M176.709 32.2883L178.352 37.5644C178.389 37.6855 178.548 37.7157 178.624 37.6098C179.351 36.5425 182.061 32.4397 182.591 29.7676C183.105 27.1637 180.804 24.3932 180.07 23.5833C179.956 23.4621 179.76 23.4697 179.669 23.6135C178.503 25.4 177.307 28.7079 176.747 30.3505C176.535 30.9788 176.527 31.66 176.724 32.2959L176.709 32.2883Z" fill="#c59844"/>
<path d="M174.188 28.564C174.249 28.6776 174.415 28.67 174.461 28.5565C174.968 27.3756 176.845 22.8263 176.853 20.1012C176.86 17.4443 174.075 15.1658 173.196 14.5148C173.06 14.4164 172.871 14.4694 172.803 14.6208C172 16.5965 171.455 20.0709 171.221 21.7968C171.13 22.4554 171.251 23.1215 171.569 23.7119L174.188 28.5792V28.564Z" fill="#c59844"/>
<path d="M166.383 17.4597L169.978 20.692C170.062 20.7677 170.198 20.7147 170.205 20.6011C170.274 19.4733 170.47 15.1737 169.668 12.9255C168.888 10.7379 165.913 9.68573 164.997 9.40566C164.854 9.36024 164.71 9.46621 164.71 9.61004C164.634 11.4722 165.217 14.5 165.535 15.9837C165.656 16.5514 165.951 17.0661 166.39 17.4522L166.383 17.4597Z" fill="#c59844"/>
<path d="M159.223 11.2145L163.023 14.2045C163.114 14.2727 163.242 14.2121 163.242 14.0986C163.242 12.9707 163.151 8.66357 162.205 6.47594C161.282 4.34131 158.254 3.48594 157.315 3.26642C157.171 3.23614 157.035 3.34212 157.035 3.48594C157.081 5.34807 157.86 8.3305 158.277 9.79144C158.436 10.3516 158.761 10.8436 159.223 11.207V11.2145Z" fill="#c59844"/>
<path d="M154.718 11.5551C154.317 11.2296 153.825 11.0327 153.303 11.0025C151.948 10.9268 149.192 10.8284 147.565 11.1463C147.436 11.169 147.368 11.3128 147.429 11.4339C147.8 12.206 149.132 14.6813 151.176 15.0749C153.272 15.4761 157.042 14.7116 158.026 14.4996C158.124 14.4769 158.155 14.3558 158.071 14.2877L154.726 11.5551H154.718Z" fill="#c59844"/>
<path d="M137.977 91.0815C146.932 89.4238 145.623 82.8836 145.04 80.9912C144.957 80.7263 144.639 80.6203 144.412 80.7717C138.371 84.9198 137.576 89.1967 137.493 90.6425C137.478 90.9074 137.712 91.1269 137.977 91.0739V91.0815Z" fill="#c59844"/>
<path d="M146.847 88.2809C153.675 85.3439 152.979 78.1149 152.577 75.8591C152.524 75.5639 152.161 75.4504 151.942 75.6623C150.852 76.7599 148.444 79.5153 148.074 81.1957C147.657 83.0654 146.802 86.3128 146.333 87.8267C146.242 88.1295 146.552 88.402 146.84 88.2809H146.847Z" fill="#c59844"/>
<path d="M160.214 67.3963C158.238 68.3274 155.241 74.4512 155.127 76.4269C155.021 78.2966 154.355 82.8459 154.075 84.3674C154.037 84.5718 154.241 84.7307 154.431 84.6551C164.703 80.189 162.159 66.4804 160.214 67.4039V67.3963Z" fill="#c59844"/>
<path d="M163.994 77.29C167.582 74.0275 168.914 71.204 169.315 70.1821C169.406 69.9475 169.474 69.7128 169.512 69.4706C170.17 65.2165 167.302 60.5838 166.219 59.0169C166.022 58.7369 165.614 58.7444 165.417 59.0321C163.956 61.2046 163.335 63.5511 163.078 64.9061C162.957 65.5495 162.964 66.2156 163.1 66.8591C164.19 71.9761 163.804 75.5112 163.524 77.0326C163.471 77.2976 163.797 77.4717 163.994 77.2824V77.29Z" fill="#c59844"/>
<path d="M146.712 90.6352C147.825 90.2643 148.945 89.848 150.058 89.4165C150.626 89.2197 151.14 88.9245 151.685 88.6747C152.223 88.4098 152.768 88.1827 153.275 87.8648L154.827 86.9791C155.349 86.6915 155.826 86.3357 156.325 86.0178C156.818 85.6847 157.332 85.3819 157.802 85.0186L159.225 83.9513C163.002 81.0672 166.348 77.6458 169.277 73.9215L170.367 72.5135L171.381 71.045C172.085 70.0837 172.668 69.0467 173.281 68.0399C173.599 67.5403 173.864 67.0029 174.137 66.4806L174.954 64.8985L175.658 63.2559C175.893 62.7109 176.135 62.1659 176.309 61.5982L176.877 59.9025C177.066 59.3348 177.165 58.7444 177.308 58.1691C177.619 57.0185 177.748 55.8301 177.929 54.6644C178.02 54.0815 178.043 53.4835 178.111 52.8931C178.149 52.3027 178.24 51.7122 178.24 51.1218C178.262 49.9334 178.346 48.7525 178.277 47.5641C178.149 42.8255 177.354 38.0869 175.749 33.6208C174.144 29.1547 171.775 24.9687 168.77 21.305C165.803 17.664 162.23 14.5453 158.331 11.9338C158.104 11.6916 157.892 11.4494 157.68 11.2147C156.008 9.33745 154.721 7.16496 153.729 4.84866C151.534 -0.275982 145.736 -0.0943107 144.116 0.0570818C143.866 0.0797907 143.677 0.29931 143.684 0.549108C143.722 2.25984 144.207 8.39124 149.399 9.00438C153.88 9.53426 156.893 11.1693 158.15 11.9792C162.063 14.6135 165.644 17.7624 168.603 21.4337C171.571 25.0974 173.91 29.2683 175.484 33.7116C177.059 38.155 177.823 42.8633 177.929 47.5716C178.012 52.2724 177.505 57.0337 175.938 61.4695C175.772 62.0372 175.53 62.5671 175.295 63.1121L174.599 64.732L173.789 66.2989C173.516 66.8212 173.259 67.3511 172.941 67.8431C172.328 68.8499 171.745 69.8717 171.056 70.8255L170.049 72.2789L168.967 73.6717C166.06 77.3733 162.707 80.7417 158.952 83.5879L157.537 84.6401C157.067 84.9959 156.56 85.2911 156.076 85.6241C155.576 85.9345 155.107 86.2903 154.584 86.5704L153.048 87.4333C152.548 87.7361 152.003 87.9632 151.473 88.2205C150.936 88.4552 150.421 88.7504 149.869 88.9396L148.226 89.5528C147.673 89.7572 147.098 89.9161 146.538 90.1054C144.282 90.8245 142.049 91.6344 139.839 92.5049C138.734 92.944 137.644 93.4209 136.561 93.9432C136.016 94.2005 135.486 94.4806 134.956 94.7834C134.691 94.9348 134.434 95.0938 134.169 95.2679C133.897 95.4495 133.677 95.6009 133.374 95.8886C133.147 96.1005 133.14 96.4639 133.359 96.6834C133.571 96.9105 133.935 96.918 134.154 96.6985C134.162 96.6909 134.169 96.6834 134.177 96.6758L134.215 96.6304C134.328 96.5017 134.578 96.2897 134.79 96.1308C135.009 95.9567 135.252 95.7977 135.486 95.6388C135.963 95.3208 136.463 95.0181 136.97 94.738C137.992 94.1703 139.052 93.6631 140.119 93.1862C142.261 92.2173 144.479 91.4073 146.704 90.6277L146.712 90.6352Z" fill="#c59844"/>
</svg>
