<?xml version="1.0" encoding="UTF-8"?>
<svg id="Layer_2" data-name="Layer 2" xmlns="http://www.w3.org/2000/svg" viewBox="0 0 1020.46 116.13">
  <defs>
    <style>
      .cls-1 {
        fill: #fff;
      }
    </style>
  </defs>
  <g id="Layer_1-2" data-name="Layer 1">
    <g>
      <path class="cls-1" d="M31.6,86.88c0,4.9.2,8.77.59,11.61.39,2.84,1.15,5.05,2.28,6.61,1.13,1.57,2.74,2.6,4.85,3.09,2.11.49,4.87.79,8.31.88v5.59H0v-5.59c3.43-.1,6.2-.42,8.31-.96,2.11-.54,3.75-1.54,4.92-3.01,1.18-1.47,1.96-3.55,2.35-6.25.39-2.69.59-6.34.59-10.95V28.22c0-4.12-.17-7.52-.51-10.22-.34-2.69-1.03-4.83-2.06-6.39-1.03-1.57-2.52-2.67-4.48-3.31-1.96-.64-4.51-1.05-7.64-1.25V1.47h44.69v5.59c-3.14.1-5.66.49-7.57,1.18-1.91.69-3.38,1.84-4.41,3.45-1.03,1.62-1.72,3.85-2.06,6.69-.34,2.84-.51,6.47-.51,10.88v57.62Z"/>
      <path class="cls-1" d="M92.61,91.29c0,3.73.2,6.76.59,9.11.39,2.35,1.18,4.17,2.35,5.44,1.18,1.27,2.79,2.13,4.85,2.57s4.8.66,8.23.66v5.59h-47.63v-5.59c3.43,0,6.2-.22,8.31-.66,2.11-.44,3.75-1.27,4.92-2.5,1.18-1.22,1.96-2.94,2.35-5.15.39-2.21.59-5.02.59-8.45V23.81c0-3.72-.22-6.69-.66-8.89-.44-2.21-1.23-3.9-2.35-5.07-1.13-1.18-2.62-1.93-4.48-2.28-1.86-.34-4.26-.51-7.2-.51V1.47h44.69v5.59c-2.94,0-5.34.2-7.2.59-1.86.39-3.36,1.23-4.48,2.5-1.13,1.27-1.89,3.06-2.28,5.37-.39,2.3-.59,5.42-.59,9.33v36.31l36.75-44.25c1.96-2.45,2.94-4.36,2.94-5.73,0-2.74-2.79-4.12-8.38-4.12V1.47h35.43v5.44c-1.96,0-3.68.12-5.15.37-1.47.25-2.92.76-4.34,1.54-1.42.79-2.92,1.91-4.48,3.38-1.57,1.47-3.38,3.38-5.44,5.73l-27.64,31.9,42.92,51.6c2.45,2.84,4.75,4.83,6.91,5.95,2.15,1.13,5.05,1.69,8.67,1.69v5.59h-45.13v-5.59c3.82,0,6.56-.32,8.23-.96,1.67-.64,2.5-1.64,2.5-3.01,0-.78-.39-1.91-1.18-3.38-.79-1.47-2.06-3.28-3.82-5.44l-28.67-35.28-10.14,11.76v18.52Z"/>
      <path class="cls-1" d="M207.12,86.88c0,4.9.2,8.77.59,11.61.39,2.84,1.15,5.05,2.28,6.61,1.13,1.57,2.74,2.6,4.85,3.09,2.11.49,4.87.79,8.31.88v5.59h-47.63v-5.59c3.43-.1,6.2-.42,8.31-.96,2.11-.54,3.75-1.54,4.92-3.01,1.18-1.47,1.96-3.55,2.35-6.25.39-2.69.59-6.34.59-10.95V28.22c0-4.12-.17-7.52-.51-10.22-.34-2.69-1.03-4.83-2.06-6.39-1.03-1.57-2.52-2.67-4.48-3.31-1.96-.64-4.51-1.05-7.64-1.25V1.47h44.69v5.59c-3.14.1-5.66.49-7.57,1.18-1.91.69-3.38,1.84-4.41,3.45-1.03,1.62-1.72,3.85-2.06,6.69-.34,2.84-.51,6.47-.51,10.88v57.62Z"/>
      <path class="cls-1" d="M310.76,88.35L348.97,1.47h32.93v5.59c-3.14.1-5.66.49-7.57,1.18-1.91.69-3.38,1.84-4.41,3.45-1.03,1.62-1.72,3.85-2.06,6.69-.34,2.84-.51,6.47-.51,10.88v57.62c0,4.9.2,8.77.59,11.61.39,2.84,1.15,5.05,2.28,6.61,1.13,1.57,2.74,2.6,4.85,3.09,2.11.49,4.87.79,8.31.88v5.59h-47.63v-5.59c3.43-.1,6.2-.42,8.31-.96,2.11-.54,3.75-1.54,4.92-3.01,1.18-1.47,1.96-3.55,2.35-6.25.39-2.69.59-6.34.59-10.95V19.7h-1.47l-42.92,96.43h-3.23l-42.19-96.43h-.59v67.18c0,4.9.2,8.77.59,11.61.39,2.84,1.15,5.05,2.28,6.61,1.13,1.57,2.74,2.6,4.85,3.09,2.11.49,4.87.79,8.31.88v5.59h-41.01v-5.59c3.43-.1,6.2-.42,8.31-.96,2.11-.54,3.75-1.54,4.92-3.01,1.18-1.47,1.96-3.55,2.35-6.25.39-2.69.59-6.34.59-10.95V28.22c0-4.12-.17-7.52-.51-10.22-.34-2.69-1.03-4.83-2.06-6.39-1.03-1.57-2.52-2.67-4.48-3.31-1.96-.64-4.51-1.05-7.64-1.25V1.47h35.13l37.04,86.88h.59Z"/>
      <path class="cls-1" d="M437.91,114.66v-5.59c3.72-.1,6.74-.37,9.04-.81,2.3-.44,4.09-1.27,5.37-2.5,1.27-1.22,2.13-2.89,2.57-5,.44-2.11.66-4.92.66-8.45V23.81c0-3.43-.17-6.2-.51-8.31-.34-2.11-1.03-3.77-2.06-5-1.03-1.22-2.52-2.06-4.48-2.5-1.96-.44-4.51-.76-7.64-.96V1.47h51.6c8.82,0,16.98,1.47,24.48,4.41,7.5,2.94,13.96,7.01,19.4,12.2,5.44,5.2,9.68,11.37,12.72,18.52,3.04,7.15,4.56,14.95,4.56,23.37s-1.42,15.41-4.26,22.12c-2.84,6.71-6.84,12.47-11.98,17.27-5.15,4.8-11.3,8.55-18.45,11.25-7.15,2.7-14.99,4.04-23.52,4.04h-57.48ZM473.48,8.67c-1.67,0-2.5.83-2.5,2.5v79.53c0,11.17,7.3,16.76,21.9,16.76,13.43,0,23.72-3.99,30.87-11.98,7.15-7.99,10.73-19.72,10.73-35.21,0-8.13-.98-15.38-2.94-21.76-1.96-6.37-4.78-11.76-8.45-16.17s-8.11-7.79-13.3-10.14c-5.2-2.35-11.08-3.53-17.64-3.53h-18.67Z"/>
      <path class="cls-1" d="M629.89,73.65h-39.25c-1.67,4.02-3.09,7.57-4.26,10.66-1.18,3.09-2.13,5.76-2.87,8.01-.73,2.26-1.25,4.17-1.54,5.73-.29,1.57-.44,2.84-.44,3.82,0,2.74.88,4.63,2.65,5.66,1.76,1.03,4.7,1.54,8.82,1.54v5.59h-35.72v-5.59c2.25-.29,4.19-.68,5.81-1.18,1.62-.49,3.04-1.18,4.26-2.06,1.22-.88,2.3-2.03,3.23-3.45.93-1.42,1.84-3.16,2.72-5.22L611.51,1.47h6.32l33.37,82.91c2.25,5.49,4.21,9.87,5.88,13.16,1.67,3.28,3.28,5.76,4.85,7.42,1.57,1.67,3.26,2.75,5.07,3.23,1.81.49,3.99.73,6.54.73v5.73h-47.92v-5.73c5.19,0,8.77-.49,10.73-1.47,1.96-.98,2.94-2.6,2.94-4.85,0-.98-.05-1.89-.15-2.72-.1-.83-.27-1.74-.51-2.72-.25-.98-.59-2.08-1.03-3.31-.44-1.22-1.01-2.67-1.69-4.34l-6.03-15.88ZM593.58,66.3h33.52l-16.32-43.37-17.2,43.37Z"/>
      <path class="cls-1" d="M773.65,116.13l-69.83-92.02h-.59v62.77c0,4.9.17,8.77.51,11.61.34,2.84,1.03,5.05,2.06,6.61,1.03,1.57,2.5,2.6,4.41,3.09,1.91.49,4.43.79,7.57.88v5.59h-39.54v-5.59c3.43-.1,6.2-.42,8.31-.96,2.11-.54,3.75-1.54,4.92-3.01,1.18-1.47,1.96-3.55,2.35-6.25.39-2.69.59-6.34.59-10.95V28.22c0-4.12-.17-7.52-.51-10.22-.34-2.69-1.03-4.83-2.06-6.39-1.03-1.57-2.52-2.67-4.48-3.31-1.96-.64-4.51-1.05-7.64-1.25V1.47h29.11l64.24,85.7h.59V29.25c0-4.8-.17-8.65-.51-11.54-.34-2.89-1.03-5.12-2.06-6.69-1.03-1.57-2.5-2.6-4.41-3.09-1.91-.49-4.44-.78-7.57-.88V1.47h39.54v5.59c-3.43.1-6.2.42-8.31.96-2.11.54-3.75,1.54-4.92,3.01-1.18,1.47-1.96,3.58-2.35,6.32-.39,2.74-.59,6.37-.59,10.88v87.91h-8.82Z"/>
      <path class="cls-1" d="M903.75,1.47h4.12l1.32,33.81h-5.44c-2.16-8.62-6.32-15.38-12.5-20.29-6.17-4.9-13.62-7.35-22.34-7.35-5.98,0-11.32,1.18-16.02,3.53-4.7,2.35-8.67,5.73-11.91,10.14-3.23,4.41-5.71,9.8-7.42,16.17-1.72,6.37-2.57,13.57-2.57,21.61,0,15.78,3.28,27.91,9.85,36.38,6.56,8.48,16.07,12.72,28.52,12.72,18.91,0,31.07-10.04,36.46-30.14h6.03v36.6h-5.15l-3.38-11.61c-10.29,8.72-22.74,13.08-37.34,13.08-8.33,0-15.85-1.32-22.56-3.97-6.71-2.65-12.45-6.39-17.2-11.25-4.75-4.85-8.43-10.75-11.03-17.71-2.6-6.96-3.9-14.7-3.9-23.23s1.37-17.05,4.12-24.4c2.74-7.35,6.59-13.67,11.54-18.96,4.95-5.29,10.88-9.38,17.79-12.27,6.91-2.89,14.53-4.34,22.86-4.34,5.88,0,11.42.83,16.61,2.5,5.19,1.67,10.83,4.36,16.91,8.08l2.65-9.11Z"/>
      <path class="cls-1" d="M958.58,52.48c5.29,0,9.72-.32,13.3-.96,3.58-.64,6.42-1.64,8.53-3.01,2.11-1.37,3.62-3.14,4.56-5.29.93-2.15,1.4-4.7,1.4-7.64h5.15v40.13h-5.15c0-2.94-.42-5.49-1.25-7.64-.83-2.15-2.3-3.94-4.41-5.37-2.11-1.42-4.95-2.5-8.53-3.23-3.58-.73-8.11-1.1-13.6-1.1v33.22c0,3.23.39,5.91,1.18,8.01.78,2.11,2.13,3.82,4.04,5.15,1.91,1.32,4.43,2.26,7.57,2.79,3.14.54,7.01.81,11.61.81,5.19,0,9.6-.37,13.23-1.1,3.62-.74,6.66-1.98,9.11-3.75,2.45-1.76,4.41-4.09,5.88-6.98,1.47-2.89,2.69-6.49,3.67-10.8h5.59l-2.21,28.96h-91.29v-5.59c3.43-.1,6.2-.39,8.31-.88,2.11-.49,3.75-1.32,4.92-2.5,1.18-1.18,1.96-2.84,2.35-5,.39-2.15.59-4.95.59-8.38V23.81c0-3.43-.17-6.2-.51-8.31-.34-2.11-1.03-3.77-2.06-5-1.03-1.22-2.52-2.06-4.48-2.5-1.96-.44-4.51-.76-7.64-.96V1.47h84.97l1.32,25.87h-5.15c-.59-3.92-1.54-7.13-2.87-9.63-1.32-2.5-3.14-4.48-5.44-5.95-2.3-1.47-5.22-2.5-8.75-3.09-3.53-.59-7.79-.88-12.79-.88h-18.67c-1.67,0-2.5.83-2.5,2.5v42.19Z"/>
    </g>
  </g>
</svg>