<svg width="102" height="95" viewBox="0 0 102 95" fill="none" xmlns="http://www.w3.org/2000/svg">
<path fill-rule="evenodd" clip-rule="evenodd" d="M60.2219 58.8023C61.0058 59.9136 63.1446 62.6097 64.0381 64.3653C67.199 70.5617 65.7883 77.4887 68.4443 82.0991C71.1307 86.7398 77.2898 90.7915 82.1179 92.7599C87.0008 94.7465 88.0448 94.1612 88.7096 88.6884C89.4045 82.9421 89.7807 71.8825 85.6978 67.3048C82.1557 63.3524 76.0938 59.2519 73.3228 55.4138C72.1987 53.8652 70.9893 51.9034 70.4363 51.0713C70.2479 50.7859 70.0717 50.7071 69.8411 50.9142L60.3125 58.0422C59.997 58.3223 59.9424 58.4258 60.2158 58.8205L60.2219 58.8023Z" fill="#c59844"/>
<path fill-rule="evenodd" clip-rule="evenodd" d="M58.7948 57.4975L69.4158 49.4558C69.9074 49.072 69.7857 48.7074 69.6642 48.4644C68.1505 45.3479 66.3521 43.3322 64.7725 41.6932C61.4614 38.2633 56.7796 37.4984 53.5152 41.358C50.9486 44.3957 50.8417 48.4936 53.1568 51.5724C55.1195 54.1897 56.9666 56.4242 57.8293 57.3591C58.1392 57.7052 58.3032 57.8812 58.7766 57.4914L58.7948 57.4975Z" fill="#c59844"/>
<path fill-rule="evenodd" clip-rule="evenodd" d="M9.24737 23.7265C9.8835 24.9317 11.6205 27.8953 12.2737 29.7641C14.5673 36.3426 12.2 43.0225 14.2139 47.9313C16.243 52.9153 21.7734 57.7781 26.2806 60.3959C30.833 63.0437 31.9425 62.6225 33.3688 57.291C34.8395 51.6954 36.7198 40.7781 33.2972 35.6842C30.3473 31.2792 24.9071 26.3785 22.6845 22.1792C21.7909 20.4768 20.8547 18.3711 20.4378 17.4746C20.2938 17.1507 20.1392 17.0643 19.861 17.2384L9.44466 22.9605C9.10276 23.2064 9.02015 23.2821 9.24737 23.7265Z" fill="#c59844"/>
<path fill-rule="evenodd" clip-rule="evenodd" d="M8.00389 22.233L19.6341 15.735C20.1754 15.4095 20.1028 15.0514 20.0116 14.7952C18.9514 11.4982 17.4386 9.2543 16.1041 7.40593C13.3064 3.55866 8.76892 2.14389 5.02119 5.49363C2.07339 8.15142 1.40386 12.1916 3.26256 15.5621C4.84112 18.4205 6.36208 20.8982 7.10316 21.9447C7.37537 22.3212 7.49648 22.5321 8.01888 22.2103L8.00389 22.233Z" fill="#c59844"/>
</svg>
